<?xml version="1.0" encoding="utf-8"?>
<!-- Generator: Adobe Illustrator 24.0.2, SVG Export Plug-In . SVG Version: 6.00 Build 0)  -->
<svg version="1.1" id="Capa_1" xmlns="http://www.w3.org/2000/svg" xmlns:xlink="http://www.w3.org/1999/xlink" x="0px" y="0px"
	 viewBox="0 0 100 100" style="enable-background:new 0 0 100 100;" xml:space="preserve">
<style type="text/css">
	.st0{fill:url(#SVGID_1_);}
	.st1{fill:none;stroke:#FFFFFF;stroke-miterlimit:10;}
	.st2{fill:#FFFFFF;}
	.st3{fill:#EEB7A3;}
	.st4{fill:#C61B1A;}
	.st5{fill:#C2191B;}
	.st6{fill:#EEC9BA;}
	.st7{fill:#D01A1E;}
	.st8{fill:#CB1A1C;}
	.st9{fill:#C1181A;}
	.st10{fill:#C0181A;}
	.st11{fill:#CF1A1D;}
	.st12{fill:#CA1B1B;}
	.st13{fill:#C4191A;}
	.st14{fill:#D41B1F;}
	.st15{fill:#C81C1B;}
	.st16{fill:#D31C1F;}
	.st17{fill:#CE1A1D;}
	.st18{fill:#C71C1B;}
	.st19{fill:#C31A1A;}
	.st20{fill:#D21B1F;}
	.st21{fill:#C71B1B;}
	.st22{fill:#D91820;}
	.st23{fill:#CE1B1D;}
</style>
<radialGradient id="SVGID_1_" cx="15.2766" cy="94.3235" r="81.1687" gradientTransform="matrix(1 0 0 1.2336 0 -21.239)" gradientUnits="userSpaceOnUse">
	<stop  offset="0.2661" style="stop-color:#2A5897"/>
	<stop  offset="0.5585" style="stop-color:#4A77B0"/>
	<stop  offset="0.8464" style="stop-color:#6694C7"/>
	<stop  offset="1" style="stop-color:#729FD0"/>
</radialGradient>
<path class="st0" d="M50,60C22.4,60,0,77.9,0,100h100C100,77.9,77.6,60,50,60z"/>
<path class="st1" d="M100,100c0-22.1-22.4-40-50-40C22.4,60,0,77.9,0,100"/>
<g>
	<path class="st2" d="M90,36"/>
	<path class="st2" d="M80,36"/>
	<rect x="60" y="36" class="st3" width="10" height="4"/>
	<rect x="50" y="36" class="st4" width="10" height="4"/>
	<rect x="40" y="36" class="st5" width="10" height="4"/>
	<rect x="30" y="36" class="st6" width="10" height="4"/>
	<rect x="70" y="32" class="st7" width="10" height="4"/>
	<rect x="60" y="32" class="st8" width="10" height="4"/>
	<rect x="50" y="32" class="st4" width="10" height="4"/>
	<rect x="40" y="32" class="st9" width="10" height="4"/>
	<rect x="30" y="32" class="st10" width="10" height="4"/>
	<rect x="20" y="32" class="st10" width="10" height="4"/>
	<rect x="70" y="28" class="st11" width="10" height="4"/>
	<rect x="60" y="28" class="st12" width="10" height="4"/>
	<rect x="50" y="28" class="st13" width="10" height="4"/>
	<rect x="40" y="28" class="st10" width="10" height="4"/>
	<rect x="30" y="28" class="st10" width="10" height="4"/>
	<rect x="20" y="28" class="st10" width="10" height="4"/>
	<rect x="80" y="24" class="st14" width="10" height="4"/>
	<rect x="70" y="24" class="st11" width="10" height="4"/>
	<rect x="60" y="24" class="st15" width="10" height="4"/>
	<rect x="50" y="24" class="st13" width="10" height="4"/>
	<rect x="40" y="24" class="st10" width="10" height="4"/>
	<rect x="30" y="24" class="st10" width="10" height="4"/>
	<rect x="20" y="24" class="st10" width="10" height="4"/>
	<rect x="10" y="24" class="st10" width="10" height="4"/>
	<rect x="80" y="20" class="st16" width="10" height="4"/>
	<rect x="70" y="20" class="st17" width="10" height="4"/>
	<rect x="60" y="20" class="st18" width="10" height="4"/>
	<rect x="50" y="20" class="st19" width="10" height="4"/>
	<rect x="40" y="20" class="st10" width="10" height="4"/>
	<rect x="30" y="20" class="st10" width="10" height="4"/>
	<rect x="20" y="20" class="st10" width="10" height="4"/>
	<rect x="10" y="20" class="st10" width="10" height="4"/>
	<rect x="80" y="16" class="st20" width="10" height="4"/>
	<rect x="70" y="16" class="st17" width="10" height="4"/>
	<rect x="60" y="16" class="st21" width="10" height="4"/>
	<rect x="50" y="16" class="st5" width="10" height="4"/>
	<rect x="40" y="16" class="st10" width="10" height="4"/>
	<rect x="30" y="16" class="st10" width="10" height="4"/>
	<rect x="20" y="16" class="st10" width="10" height="4"/>
	<rect x="10" y="16" class="st10" width="10" height="4"/>
	<rect x="90" y="12" class="st22" width="10" height="4"/>
	<rect x="80" y="12" class="st20" width="10" height="4"/>
	<rect x="70" y="12" class="st23" width="10" height="4"/>
	<rect x="60" y="12" class="st21" width="10" height="4"/>
	<rect x="50" y="12" class="st5" width="10" height="4"/>
	<rect x="40" y="12" class="st10" width="10" height="4"/>
	<rect x="30" y="12" class="st10" width="10" height="4"/>
	<rect x="20" y="12" class="st10" width="10" height="4"/>
	<rect x="10" y="12" class="st10" width="10" height="4"/>
	<rect y="12" class="st10" width="10" height="4"/>
	<rect x="90" y="8" class="st22" width="10" height="4"/>
	<rect x="80" y="8" class="st20" width="10" height="4"/>
	<rect x="70" y="8" class="st23" width="10" height="4"/>
	<rect x="60" y="8" class="st21" width="10" height="4"/>
	<rect x="50" y="8" class="st9" width="10" height="4"/>
	<rect x="40" y="8" class="st10" width="10" height="4"/>
	<rect x="30" y="8" class="st10" width="10" height="4"/>
	<rect x="20" y="8" class="st10" width="10" height="4"/>
	<rect x="10" y="8" class="st10" width="10" height="4"/>
	<rect y="8" class="st10" width="10" height="4"/>
	<rect x="90" y="4" class="st22" width="10" height="4"/>
	<rect x="80" y="4" class="st20" width="10" height="4"/>
	<rect x="70" y="4" class="st23" width="10" height="4"/>
	<rect x="60" y="4" class="st21" width="10" height="4"/>
	<rect x="50" y="4" class="st9" width="10" height="4"/>
	<rect x="40" y="4" class="st10" width="10" height="4"/>
	<rect x="30" y="4" class="st10" width="10" height="4"/>
	<rect x="20" y="4" class="st10" width="10" height="4"/>
	<rect x="10" y="4" class="st10" width="10" height="4"/>
	<rect y="4" class="st10" width="10" height="4"/>
	<rect x="90" class="st22" width="10" height="4"/>
	<rect x="80" class="st16" width="10" height="4"/>
	<rect x="70" class="st17" width="10" height="4"/>
	<rect x="60" class="st21" width="10" height="4"/>
	<rect x="50" class="st9" width="10" height="4"/>
	<rect x="40" class="st10" width="10" height="4"/>
	<rect x="30" class="st10" width="10" height="4"/>
	<rect x="20" class="st10" width="10" height="4"/>
	<rect x="10" class="st10" width="10" height="4"/>
	<rect class="st10" width="10" height="4"/>
</g>
<polyline class="st1" points="0,16 10,16 10,28 20,28 20,36 30,36 30,40 70,40 70,36 80,36 80,28 90,28 90,16 100,16 "/>
</svg>
